# xmcd
#
# Track frame offsets:
#	150
#	15484
#	27655
#	38080
#	56989
#	73176
#	82849
#	94288
#	110501
#	122656
#	131244
#	148056
#
# Disc length: 2083 seconds
#
# Revision: 1
# Processed by: cddbd v1.4PL0 Copyright (c) Steve Scherf et al.
# Submitted via: audiograbber 1.80.04
#
DISCID=ae08210c
DTITLE=The Outpsyders - Makin' Tracks
DYEAR=1997
DGENRE=
TTITLE0=Spend My Money
TTITLE1=Truckin' Blues
TTITLE2=I'm Gonna Sit Right Down And Right Myself A Letter
TTITLE3=Cowboy Blues
TTITLE4=Don't Know For Sure
TTITLE5=Late For Dinner
TTITLE6=Chicks Dig Me
TTITLE7=Hot Jazz
TTITLE8=Satin Doll
TTITLE9=Rock And Gravel Highway
TTITLE10=Sugar Moon
TTITLE11=Canadian Sunset
EXTD=
EXTT0=
EXTT1=
EXTT2=
EXTT3=
EXTT4=
EXTT5=
EXTT6=
EXTT7=
EXTT8=
EXTT9=
EXTT10=
EXTT11=
PLAYORDER=
